<?xml version="1.0" standalone="no"?>

<!DOCTYPE svg PUBLIC "-//W3C//DTD SVG 1.1//EN" "http://www.w3.org/Graphics/SVG/1.1/DTD/svg11.dtd">
<svg xmlns="http://www.w3.org/2000/svg" version="1.1" xmlns:xlink="http://www.w3.org/1999/xlink" viewBox="0 0 208 20" width="416" height="40">

  <style type="text/css" >
    <![CDATA[

      .silhouette,
      .counter {
        fill:   #3b637e;
      }

      .letter {
        fill: #fff;
      }

    ]]>
  </style>

  <defs>
    <g id="A">
      <path class="silhouette"  d="M -1 0
                                   l 22 0
                                   l 0 20
                                   l -9 0
                                   l 0 -5
                                   l -4 0
                                   l 0 5
                                   l -9 0
                                   z" />

      <path class="letter"      d="M 2 2
                                   l 16 0
                                   l 0 16
                                   l -4 0
                                   l 0 -5
                                   l -8 0
                                   l 0 5
                                   l -4 0
                                   z" />

      <path class="counter"     d="M 6 5
                                   l 8 0
                                   l 0 5
                                   l -8 0
                                   z"/>
    </g>

    <g id="N">
      <path class="silhouette"  d="M -1 0
                                   l 22 0
                                   l 0 20
                                   l -9 0
                                   l 0 -12
                                   l -4 0
                                   l 0 12
                                   l -9 0
                                   z" />

      <path class="letter"      d="M 2 2
                                   l 16 0
                                   l 0 16
                                   l -4 0
                                   l 0 -12
                                   l -8 0
                                   l 0 12
                                   l -4 0
                                   z" />
    </g>

    <g id="D">
      <rect x="-1" y="0" height="20" width="22" class="silhouette" />

      <path class="letter"      d="M 2 2
                                   l 12 0
                                   l 0 4
                                   l 0 8
                                   l 4 0
                                   l 0 -8
                                   l -4 0
                                   l -8 0
                                   l 0 8
                                   l 8 0
                                   l 0 4
                                   l -12 0
                                   z" />
    </g>

    <g id="Y">
      <path class="silhouette"  d="M -1 0
                                   l 5 0
                                   l 6 4
                                   l 6 -4
                                   l 5 0
                                   l 0 20
                                   l -22 0
                                   z" />

      <path class="letter"      d="M 2 2
                                   l 8 6
                                   l 8 -6
                                   l 0 5
                                   l -6 4.5
                                   l 0 6.5
                                   l -4 0
                                   l 0 -6.5
                                   l -6 -4.5
                                   z" />
    </g>

    <g id="M">
      <rect x="-1" y="0" height="20" width="22" class="silhouette" />

      <path class="letter"      d="M 2 2
                                   l 16 0
                                   l 0 16
                                   l -4 0
                                   l 0 -12
                                   l -2 0
                                   l 0 12
                                   l -4 0
                                   l 0 -12
                                   l -2 0
                                   l 0 12
                                   l -4 0
                                   z" />
    </g>

    <g id="T">
      <rect x="-1" y="0" height="20" width="22" class="silhouette" />

      <path class="letter"      d="M 2 2
                                   l 16 0
                                   l 0 4
                                   l -6 0
                                   l 0 12
                                   l -4 0
                                   l 0 -12
                                   l -6 0
                                   z" />
    </g>

    <g id="E">
      <rect x="-1" y="0" height="20" width="18" class="silhouette" />

      <path class="letter"      d="M 2 2
                                   l 12 0
                                   l 0 3
                                   l -8 0
                                   l 0 3.5
                                   l 8 0
                                   l 0 3
                                   l -8 0
                                   l 0 3.5
                                   l 8 0
                                   l 0 3
                                   l -12 0
                                   z" />
    </g>

    <g id="L">
      <rect x="-1" y="0" height="20" width="18" class="silhouette" />

      <path class="letter"      d="M 2 2
                                   l 4 0
                                   l 0 12
                                   l 8 0
                                   l 0 4
                                   l -12 0
                                   z" />
    </g>

  </defs>

  <use xlink:href="#A" />
  <use xlink:href="#N" x="20" />
  <use xlink:href="#D" x="40" />
  <use xlink:href="#Y" x="60" />
  <use xlink:href="#M" x="80" />
  <use xlink:href="#A" x="100" />
  <use xlink:href="#N" x="120" />
  <use xlink:href="#T" x="140" />
  <use xlink:href="#E" x="160" />
  <use xlink:href="#L" x="176" />
  <use xlink:href="#L" x="192" />

</svg>
